<svg width="100" height="100" viewBox="0 0 100 100" fill="none" xmlns="http://www.w3.org/2000/svg">
  <defs>
    <radialGradient id="rBg" cx="50%" cy="50%" r="50%">
      <stop offset="0%" stop-color="#00D4F5" stop-opacity="0.1"/>
      <stop offset="100%" stop-color="#00D4F5" stop-opacity="0"/>
    </radialGradient>
    <linearGradient id="iH" x1="0" y1="0" x2="0" y2="1">
      <stop offset="0%" stop-color="#00D4F5" stop-opacity="0.28"/>
      <stop offset="100%" stop-color="#00D4F5" stop-opacity="0.05"/>
    </linearGradient>
    <linearGradient id="iSG" x1="0" y1="0" x2="1" y2="1">
      <stop offset="0%" stop-color="#F5A623"/>
      <stop offset="100%" stop-color="#A05E00" stop-opacity="0.5"/>
    </linearGradient>
    <linearGradient id="iSC" x1="1" y1="0" x2="0" y2="1">
      <stop offset="0%" stop-color="#00D4F5"/>
      <stop offset="100%" stop-color="#005F75" stop-opacity="0.4"/>
    </linearGradient>
    <filter id="glow">
      <feGaussianBlur stdDeviation="1.5" result="b"/>
      <feMerge><feMergeNode in="b"/><feMergeNode in="SourceGraphic"/></feMerge>
    </filter>
  </defs>

  <!-- Circle background -->
  <circle cx="50" cy="50" r="48" fill="url(#rBg)"/>
  <circle cx="50" cy="50" r="48" fill="none" stroke="#182035" stroke-width="1.5"/>

  <g transform="translate(4, 1) scale(0.96)">
    <!-- Waves -->
    <path d="M0,96 Q12,90 24,96 Q36,102 48,96 Q60,90 72,96 Q84,102 96,96"
          stroke="#00D4F5" stroke-width="1.2" fill="none" opacity="0.45"/>

    <!-- Hull -->
    <path d="M10,72 L16,92 Q33,100 48,100 Q63,100 80,92 L86,72 Z"
          fill="url(#iH)" stroke="#00D4F5" stroke-width="1.7"/>
    <line x1="10" y1="72" x2="86" y2="72" stroke="#00D4F5" stroke-width="1.4" opacity="0.65"/>
    <!-- Prow -->
    <path d="M80,92 L92,80 L86,72" fill="#00D4F5" fill-opacity="0.1" stroke="#00D4F5" stroke-width="1.2"/>
    <!-- Portholes -->
    <circle cx="30" cy="83" r="3" fill="#06090F" stroke="#00D4F5" stroke-width="1.3"/>
    <circle cx="30" cy="83" r="1.1" fill="#00D4F5"/>
    <circle cx="48" cy="83" r="3" fill="#06090F" stroke="#00D4F5" stroke-width="1.3"/>
    <circle cx="48" cy="83" r="1.1" fill="#00D4F5"/>
    <circle cx="66" cy="83" r="3" fill="#06090F" stroke="#00D4F5" stroke-width="1.3"/>
    <circle cx="66" cy="83" r="1.1" fill="#00D4F5"/>

    <!-- Mast -->
    <line x1="48" y1="12" x2="48" y2="72" stroke="#00D4F5" stroke-width="2" opacity="0.75"/>

    <!-- Crow's nest -->
    <rect x="40" y="60" width="16" height="6" rx="2" fill="#06090F" stroke="#00D4F5" stroke-width="1.3"/>
    <circle cx="48" cy="63" r="2" fill="#00D4F5" filter="url(#glow)"/>

    <!-- Main sail (gold, right) -->
    <path d="M48,14 L84,32 L84,62 L48,62 Z"
          fill="url(#iSG)" stroke="#F5A623" stroke-width="1.4" opacity="0.8"/>
    <line x1="57" y1="30" x2="76" y2="38" stroke="#F5A623" stroke-width="0.75" opacity="0.5"/>
    <line x1="57" y1="41" x2="76" y2="49" stroke="#F5A623" stroke-width="0.75" opacity="0.5"/>
    <line x1="57" y1="52" x2="76" y2="58" stroke="#F5A623" stroke-width="0.75" opacity="0.5"/>

    <!-- Fore sail (cyan, left) -->
    <path d="M48,20 L16,36 L16,62 L48,62 Z"
          fill="url(#iSC)" stroke="#00D4F5" stroke-width="1.2" opacity="0.65"/>
    <line x1="39" y1="34" x2="22" y2="42" stroke="#00D4F5" stroke-width="0.7" opacity="0.5"/>
    <line x1="39" y1="45" x2="22" y2="51" stroke="#00D4F5" stroke-width="0.7" opacity="0.5"/>

    <!-- Yard arm -->
    <line x1="16" y1="36" x2="84" y2="36" stroke="#00D4F5" stroke-width="1" opacity="0.25"/>

    <!-- Flag -->
    <path d="M48,12 L68,16 L62,21 L48,21 Z" fill="#F5A623" opacity="0.95"/>

    <!-- Antenna -->
    <line x1="48" y1="3" x2="48" y2="12" stroke="#00D4F5" stroke-width="1.2" opacity="0.55"/>
    <circle cx="48" cy="3" r="2.2" fill="#06090F" stroke="#F5A623" stroke-width="1.5"/>
    <circle cx="48" cy="3" r="0.9" fill="#F5A623" filter="url(#glow)"/>
  </g>
</svg>
